#define alarm_override_width 12
#define alarm_override_height 12
static char alarm_override_bits[] = {
   0x00, 0x08, 0x00, 0x04, 0x00, 0x06, 0x00, 0x03, 0x00, 0x03, 0x80, 0x01,
   0xc7, 0x01, 0xce, 0x00, 0xfc, 0x00, 0x78, 0x00, 0x70, 0x00, 0x20, 0x00};
