/* XPM */
static char *_xpm[]={
"24 22 8 1",
"  c #E79DE79DE79D",
". c #000000000000",
"o c #FFFFFFFFFFFF",
"O c #bc03bc03bc03",
"a c #842184218421",
"b c #00006b5affff",
"d c #0000ffff0000",
"e c yellow1",
" ...................... ",
".oooooooooooooooooooooO.",
".o     .             OO.",
".o    .e.            OO.",
".o   .eee.           OO.",
".o  .eeeee.          OO.",
".o .eeeeeee.         OO.",
".o ...eee...         OO.",
".o   .eee.           OO.",
".o   .eee.           OO.",
".o   .eee.   bbb     OO.",
".o   .....  beeeb    OO.",
".o         beeeeeb   OO.",
".o         bee.eeb   OO.",
".o         beeeeeb   OO.",
".o     bbbbbbeeeb    OO.",
".o    beeeeebbbb     OO.",
".o   beeeeeeeb       OO.",
".o  beee...eeeb      OO.",
".oOOOOOOOOOOOOOOOOOOOOO.",
".OOOOOOOOOOOOOOOOOOOOOO.",
" ...................... "
};
