/* XPM */
static char *fep_off_xpm[]={
"24 22 7 1",
"  c #E79DE79DE79D",
". c #000000000000",
"o c #FFFFFFFFFFFF",
"O c #bc03bc03bc03",
"a c #842184218421",
"b c #00006b5affff",
"d c #ffff00000000",
" ...................... ",
".oooooooooooooooooooooO.",
".o           bbb     OO.",
".o          bOOOdd   OO.",
".o         bOOOddd   OO.",
".o         bOOdddb   OO.",
".o         bOdddOb   OO.",
".o     bbbbbdddOb    OO.",
".o    bOOaOdddbb     OO.",
".o   baOOadddb       OO.",
".o  bOOaOdddOOb      OO.",
".o  bOOOdddOOOb      OO.",
".o  baaddd.aaab      OO.",
".o  bOddd..OOOb      OO.",
".o  bddd aOaOOb      OO.",
".o  dddOOaOOab       OO.",
".o dddbOOaOOb        OO.",
".o dd  bbbbb         OO.",
".o                   OO.",
".oOOOOOOOOOOOOOOOOOOOOO.",
".OOOOOOOOOOOOOOOOOOOOOO.",
" ...................... "
};
