/* XPM */
static char *fep_1_xpm[]={
"24 22 7 1",
"  c #E79DE79DE79D",
". c #000000000000",
"o c #FFFFFFFFFFFF",
"O c #bc03bc03bc03",
"a c #842184218421",
"b c #00006b5affff",
"d c #0000ffff0000",
" ...................... ",
".oooooooooooooooooooooO.",
".o           bbb     OO.",
".o          bOOOb    OO.",
".o         bOOOOOb   OO.",
".o         bOO.OOb   OO.",
".o         bOOOOOb   OO.",
".o     bbbbbbOOOb    OO.",
".o    bOOaOObbbb     OO.",
".o   baOOaOOab       OO.",
".o  bOOaOaOaOOb      OO.",
".o  bOOO...OOOb      OO.",
".o  baaa.O.aaab      OO.",
".o  bOOO...OOOb      OO.",
".o  bOOa aOaOOb      OO.",
".o   baOOaOOab       OO.",
".o    bOOaOOb        OO.",
".o     bbbbb         OO.",
".o                   OO.",
".oOOOOOOOOOOOOOOOOOOOOO.",
".OOOOOOOOOOOOOOOOOOOOOO.",
" ...................... "
};
