/* XPM */
static char *_xpm[]={
"24 22 8 1",
"  c #E79DE79DE79D",
". c #000000000000",
"o c #FFFFFFFFFFFF",
"O c #bc03bc03bc03",
"a c #842184218421",
"b c #00006b5affff",
"d c #fffddad10000",
"e c red",
" ...................... ",
".oooooooooooooooooooooO.",
".o                   OO.",
".o       .....       OO.",
".o     ..ddddd..     OO.",
".o    .ddddddddd.    OO.",
".o   .ddd.....ddd.   OO.",
".o   .ddd.eee.ddd.   OO.",
".o  .dddd.eee.dddd.  OO.",
".o  .dddd.eee.dddd.  OO.",
".o  .dddd.eee.dddd.  OO.",
".o  .dd...eee...dd.  OO.",
".o  .ddd.eeeee.ddd.  OO.",
".o   .ddd.eee.ddd.   OO.",
".o   .dddd.e.dddd.   OO.",
".o    .dddd.dddd.    OO.",
".o     ..ddddd..     OO.",
".o       .....       OO.",
".o                   OO.",
".oOOOOOOOOOOOOOOOOOOOOO.",
".OOOOOOOOOOOOOOOOOOOOOO.",
" ...................... "
};
