/* XPM */
static char *process_down_label_xpm[]={
"24 22 7 1",
"  c #E79DE79DE79D",
". c #000000000000",
"o c #FFFFFFFFFFFF",
"O c #bc03bc03bc03",
"a c #842184218421",
"b c #00006b5affff",
"d c #ffff00000000",
" ...................... ",
".oooooooooooooooooooooO.",
".o                   OO.",
".o      aaaaaaaO     OO.",
".o      adddddaO     OO.",
".o      adddddaO     OO.",
".o      adddddaO     OO.",
".o      adddddaO     OO.",
".o      adddddaO     OO.",
".o      adddddaOOOOO OO.",
".o  aaaaadddddaaaaaO OO.",
".o   adddddddddddaO  OO.",
".o    adddddddddaO   OO.",
".o     adddddddaO    OO.",
".o      adddddaO     OO.",
".o       adddaO      OO.",
".o        adaO       OO.",
".o         aO        OO.",
".o                   OO.",
".oOOOOOOOOOOOOOOOOOOOOO.",
".OOOOOOOOOOOOOOOOOOOOOO.",
" ...................... "
};
