/* XPM */
static char *process_init_label_xpm[]={
"24 22 7 1",
"  c #E79DE79DE79D",
". c #000000000000",
"o c #FFFFFFFFFFFF",
"O c #bc03bc03bc03",
"a c #842184218421",
"b c #00006b5affff",
"d c #fffddad10000",
" ...................... ",
".oooooooooooooooooooooO.",
".o                   OO.",
".o       .....       OO.",
".o     ..ddddd..     OO.",
".o    .ddddddddd.    OO.",
".o   .ddddddddddd.   OO.",
".o   .ddddddddddd.   OO.",
".o  .ddddddddddddd.  OO.",
".o  .ddddddddddddd.  OO.",
".o  .ddddddddddddd.  OO.",
".o  .ddddddddddddd.  OO.",
".o  .ddddddddddddd.  OO.",
".o   .ddddddddddd.   OO.",
".o   .ddddddddddd.   OO.",
".o    .ddddddddd.    OO.",
".o     ..ddddd..     OO.",
".o       .....       OO.",
".o                   OO.",
".oOOOOOOOOOOOOOOOOOOOOO.",
".OOOOOOOOOOOOOOOOOOOOOO.",
" ...................... "
};
