/* XPM */
static char *process_up_label_xpm[]={
"24 22 7 1",
"  c #E79DE79DE79D",
". c #000000000000",
"o c #FFFFFFFFFFFF",
"O c #bc03bc03bc03",
"a c #842184218421",
"b c #00006b5affff",
"d c #0000ffff0000",
" ...................... ",
".oooooooooooooooooooooO.",
".o                   OO.",
".o         a         OO.",
".o        ada        OO.",
".o       addda       OO.",
".o      addddda      OO.",
".o     addddddda     OO.",
".o    addddddddda    OO.",
".o   aaaadddddaaaa   OO.",
".o      adddddaOOOO  OO.",
".o      adddddaO     OO.",
".o      adddddaO     OO.",
".o      adddddaO     OO.",
".o      adddddaO     OO.",
".o      adddddaO     OO.",
".o      aaaaaaaO     OO.",
".o       OOOOOOO     OO.",
".o                   OO.",
".oOOOOOOOOOOOOOOOOOOOOO.",
".OOOOOOOOOOOOOOOOOOOOOO.",
" ...................... "
};
