/* XPM */
static char *xmitdisabed_xpm[]={
"24 22 7 1",
"  c #E79DE79DE79D",
". c #000000000000",
"o c #FFFFFFFFFFFF",
"O c #bc03bc03bc03",
"a c #842184218421",
"b c #00006b5affff",
"d c #ffff00000000",
" ...................... ",
".oooooooooooooooooooooO.",
".o                   OO.",
".o              dd   OO.",
".o  bb         dddb  OO.",
".o    bb      ddd    OO.",
".o      b    ddd     OO.",
".o        ..ddd      OO.",
".o      b  dddb      OO.",
".o    bb  ddd  bb    OO.",
".o  bb   ddd     bb  OO.",
".o      ddd a        OO.",
".o     ddda.a        OO.",
".o    ddd a a        OO.",
".o   ddd  a.a        OO.",
".o  ddd   a a        OO.",
".o ddd    a.a        OO.",
".o dd     a a        OO.",
".o                   OO.",
".oOOOOOOOOOOOOOOOOOOOOO.",
".OOOOOOOOOOOOOOOOOOOOOO.",
" ...................... "
};
