/* XPM */
static char *xmit_1_xpm[]={
"24 22 6 1",
"  c #E79DE79DE79D",
". c #000000000000",
"o c #FFFFFFFFFFFF",
"O c #bc03bc03bc03",
"a c #842184218421",
"b c #00006b5affff",
" ...................... ",
".oooooooooooooooooooooO.",
".o                   OO.",
".o                   OO.",
".o  bb           bb  OO.",
".o    bb       bb    OO.",
".o      b     b      OO.",
".o        ...        OO.",
".o      b  .  b      OO.",
".o    bb   a   bb    OO.",
".o  bb     .     bb  OO.",
".o        a a        OO.",
".o ....   a.a        OO.",
".o .   .  a a        OO.",
".o .   .  a.a        OO.",
".o ....   a a        OO.",
".o .      a.a        OO.",
".o .      a a        OO.",
".o .                 OO.",
".oOOOOOOOOOOOOOOOOOOOOO.",
".OOOOOOOOOOOOOOOOOOOOOO.",
" ...................... "
};
