/* XPM */
static char *xmit_sec_xpm[]={
"24 22 6 1",
"  c #E79DE79DE79D",
". c #000000000000",
"o c #FFFFFFFFFFFF",
"O c #bc03bc03bc03",
"a c #842184218421",
"b c #00006b5affff",
" ...................... ",
".                     O.",
".                    OO.",
".                    OO.",
".   bb           bb  OO.",
".     bb       bb    OO.",
".       b     b      OO.",
".         ...        OO.",
".       b  .  b      OO.",
".     bb   a   bb    OO.",
".   bb     .     bb  OO.",
".         a a        OO.",
".         a.a   .... OO.",
".         a a  .     OO.",
".         a.a  .     OO.",
".         a a  ..... OO.",
".         a.a      . OO.",
".         a a      . OO.",
".              ....  OO.",
". OOOOOOOOOOOOOOOOOOOOO.",
".OOOOOOOOOOOOOOOOOOOOOO.",
" ...................... "
};
