/* XPM */
static char *xmit_pboff_xpm[]={
"24 22 7 1",
"  c #E79DE79DE79D",
". c #000000000000",
"o c #FFFFFFFFFFFF",
"O c #bc03bc03bc03",
"a c #842184218421",
"b c #00006b5affff",
"d c red",
" ...................... ",
".                     O.",
".                d   OO.",
".               ddd  OO.",
".        ....  ddd   OO.",
".       .    .ddd    OO.",
".      .     ddd     OO.",
".     .     ddd.     OO.",
".     .    ddd .     OO.",
".    ..   ddd  ..    OO.",
".   .... ddd  ....   OO.",
".   ....ddd   ....   OO.",
".   ...ddd    ....   OO.",
".   ..ddd     ....   OO.",
".   .ddd      ....   OO.",
".   ddd        ..    OO.",
".  ddd               OO.",
".   d                OO.",
".                    OO.",
". OOOOOOOOOOOOOOOOOOOOO.",
".OOOOOOOOOOOOOOOOOOOOOO.",
" ...................... "
};
